# 3ds Max Wavefront OBJ Exporter v0.97b - (c)2007 guruware
# File Created: 25.07.2016 17:46:12

mtllib moon.mtl

#
# object moon
#

v  0.1990 0.0977 0.0000
v  1.5020 -0.1241 0.4558
v  1.4111 0.5566 0.5176
v  0.9411 1.1785 0.5176
v  0.3142 1.5179 0.4612
v  0.4004 -0.8627 -0.0000
v  0.2008 -1.2979 -0.0000
v  0.4442 -1.5030 0.0542
v  0.9185 -1.2935 0.1700
v  -0.3442 1.6594 0.0000
v  -0.3479 1.5396 0.3723
v  0.3809 1.6983 0.0000
v  -0.9781 1.3575 0.0000
v  -0.9550 1.3004 0.2275
v  -1.3504 0.8574 0.0980
v  -1.5271 0.3667 0.0000
v  -1.1603 0.5364 0.0000
v  0.0241 -1.5582 -0.0000
v  0.9677 -1.3414 -0.0000
v  0.4561 -1.5256 -0.0000
v  1.4734 -0.7974 -0.0000
v  1.3520 -0.7653 0.3337
v  1.6579 0.6720 0.0000
v  1.7508 -0.1026 0.0000
v  1.1120 1.3620 0.0000
v  -1.3680 0.8832 0.0000
v  -0.1581 0.4203 0.0000
v  -0.6480 0.5761 0.0000
v  0.4079 -0.3690 -0.0000
v  1.4111 0.5566 -0.5176
v  1.5020 -0.1241 -0.4558
v  0.9411 1.1785 -0.5176
v  0.3142 1.5179 -0.4612
v  0.9185 -1.2935 -0.1700
v  0.4442 -1.5030 -0.0542
v  -0.3479 1.5396 -0.3723
v  -0.9550 1.3004 -0.2275
v  -1.3504 0.8574 -0.0980
v  1.3520 -0.7653 -0.3337
# 39 vertices

vn -0.8120 -0.5836 -0.0000
vn -0.3548 -0.1186 0.9274
vn -0.3275 -0.1811 0.9273
vn -0.2697 -0.2590 0.9275
vn -0.1951 -0.3051 0.9321
vn -0.9950 0.0996 0.0033
vn -0.9070 0.4206 0.0190
vn -0.1990 0.0751 0.9771
vn -0.3030 0.0117 0.9529
vn -0.2225 0.9749 -0.0000
vn -0.2000 0.9332 0.2985
vn 0.2022 0.9054 0.3734
vn 0.2050 0.9788 -0.0000
vn -0.6121 0.7908 -0.0000
vn -0.5834 0.7709 0.2558
vn 0.0390 -0.2705 0.9619
vn 0.4198 -0.9076 -0.0000
vn 0.2039 -0.9790 0.0000
vn -0.8273 0.5617 0.0000
vn 0.5469 -0.8372 0.0000
vn 0.5105 -0.7776 0.3672
vn 0.1947 -0.8934 0.4049
vn 0.2181 -0.9759 -0.0000
vn 0.8633 -0.5047 -0.0000
vn 0.8185 -0.4577 0.3473
vn 0.9252 0.3796 -0.0000
vn 0.8253 0.3275 0.4601
vn 0.8861 -0.1066 0.4510
vn 0.9933 -0.1153 0.0000
vn 0.6268 0.7792 0.0000
vn 0.5712 0.7001 0.4285
vn 0.0753 -0.9972 -0.0000
vn -0.8464 0.4614 0.2659
vn -0.8728 0.4881 -0.0000
vn -0.9557 0.2944 -0.0000
vn -0.3496 -0.0551 0.9353
vn -0.5265 -0.8502 -0.0000
vn -0.1173 -0.3330 0.9356
vn -0.1762 -0.9843 -0.0000
vn -0.0483 -0.3163 0.9474
vn -0.9673 -0.2537 -0.0000
vn -0.3275 -0.1811 -0.9273
vn -0.3548 -0.1186 -0.9274
vn -0.2697 -0.2590 -0.9275
vn -0.1951 -0.3051 -0.9321
vn -0.2901 0.0105 -0.9569
vn -0.2048 0.0157 -0.9787
vn 0.2022 0.9054 -0.3734
vn -0.2000 0.9332 -0.2985
vn -0.5834 0.7709 -0.2558
vn 0.0390 -0.2705 -0.9619
vn 0.1947 -0.8934 -0.4049
vn 0.5105 -0.7776 -0.3672
vn 0.8185 -0.4577 -0.3473
vn 0.8861 -0.1066 -0.4510
vn 0.8253 0.3275 -0.4601
vn 0.5712 0.7001 -0.4285
vn -0.8464 0.4614 -0.2659
vn -0.3496 -0.0551 -0.9353
vn -0.1173 -0.3330 -0.9356
vn -0.0483 -0.3163 -0.9474
# 61 vertex normals

vt 0.7245 0.7126 0.0000
vt 0.9299 0.6701 0.0000
vt 0.9101 0.7830 0.0000
vt 0.8382 0.8806 0.0000
vt 0.7395 0.9303 0.0000
vt 0.7599 0.5377 0.0000
vt 0.7307 0.4657 0.0000
vt 0.7609 0.4410 0.0000
vt 0.8357 0.4798 0.0000
vt 0.6314 0.9625 0.0000
vt 0.6318 0.9370 0.0000
vt 0.7485 0.9644 0.0000
vt 0.5303 0.9112 0.0000
vt 0.5326 0.8998 0.0000
vt 0.4656 0.8381 0.0000
vt 0.4366 0.7683 0.0000
vt 0.4891 0.7887 0.0000
vt 0.7028 0.4294 0.0000
vt 0.8431 0.4726 0.0000
vt 0.7623 0.4373 0.0000
vt 0.9246 0.5605 0.0000
vt 0.9051 0.5658 0.0000
vt 0.9491 0.7984 0.0000
vt 0.9655 0.6732 0.0000
vt 0.8631 0.9123 0.0000
vt 0.4639 0.8407 0.0000
vt 0.6554 0.7692 0.0000
vt 0.5744 0.7955 0.0000
vt 0.7576 0.6325 0.0000
vt 0.9299 0.6698 0.0000
vt 0.8358 0.4797 0.0000
# 31 texture coords

g moon
usemtl sun_moon
s 1
f 1/1/1 2/2/2 3/3/3 
f 1/1/1 3/3/3 4/4/4 
f 1/1/1 4/4/4 5/5/5 
f 6/6/6 7/7/7 8/8/8 9/9/9 
s 2
f 10/10/10 11/11/11 5/5/12 12/12/13 
f 10/10/10 13/13/14 14/14/15 11/11/11 
s 1
f 15/15/16 16/16/17 17/17/18 
f 7/7/7 18/18/19 8/8/8 
s 2
f 19/19/20 9/9/21 8/8/22 20/20/23 
f 19/19/20 21/21/24 22/22/25 9/9/21 
f 23/23/26 3/3/27 2/2/28 24/24/29 
f 25/25/30 4/4/31 3/3/27 23/23/26 
f 12/12/13 5/5/12 4/4/31 25/25/30 
f 18/18/32 20/20/23 8/8/22 
f 15/15/33 26/26/34 16/16/35 
s 1
f 9/9/9 22/22/36 6/6/6 
f 5/5/5 27/27/37 1/1/1 
f 11/11/38 28/28/39 27/27/37 
s 2
f 13/13/14 26/26/34 15/15/33 14/14/15 
s 1
f 17/17/18 14/14/40 15/15/16 
s 2
f 21/21/24 24/24/29 2/2/28 22/22/25 
s 1
f 22/22/36 2/2/2 29/29/41 
f 1/1/1 30/3/42 31/30/43 
f 1/1/1 32/4/44 30/3/42 
f 1/1/1 33/5/45 32/4/44 
f 34/31/46 35/8/47 7/7/7 6/6/6 
s 2
f 10/10/10 12/12/13 33/5/48 36/11/49 
f 10/10/10 36/11/49 37/14/50 13/13/14 
s 1
f 38/15/51 17/17/18 16/16/17 
f 7/7/7 35/8/47 18/18/19 
s 2
f 19/19/20 20/20/23 35/8/52 34/31/53 
f 19/19/20 34/31/53 39/22/54 21/21/24 
f 23/23/26 24/24/29 31/30/55 30/3/56 
f 25/25/30 23/23/26 30/3/56 32/4/57 
f 12/12/13 25/25/30 32/4/57 33/5/48 
f 18/18/32 35/8/52 20/20/23 
f 38/15/58 16/16/35 26/26/34 
s 1
f 6/6/6 39/22/59 34/31/46 
f 1/1/1 27/27/37 33/5/45 
f 27/27/37 28/28/39 36/11/60 
s 2
f 13/13/14 37/14/50 38/15/58 26/26/34 
s 1
f 28/28/39 17/17/18 37/14/61 
s 2
f 21/21/24 39/22/54 31/30/55 24/24/29 
s 1
f 29/29/41 31/30/43 39/22/59 
f 11/11/38 14/14/40 28/28/39 
f 28/28/39 37/14/61 36/11/60 
f 5/5/5 11/11/38 27/27/37 
f 27/27/37 36/11/60 33/5/45 
f 2/2/2 1/1/1 29/29/41 
f 29/29/41 1/1/1 31/30/43 
f 22/22/36 29/29/41 6/6/6 
f 6/6/6 29/29/41 39/22/59 
f 17/17/18 28/28/39 14/14/40 
f 17/17/18 38/15/51 37/14/61 
# 20 polygons - 34 triangles

