# 3ds Max Wavefront OBJ Exporter v0.97b - (c)2007 guruware
# File Created: 05.08.2016 16:58:34

mtllib mould_green.mtl

#
# object mould_green
#

v  -0.0183 0.3500 -0.6278
v  -0.0441 0.3073 -0.6278
v  -0.6260 0.3073 -0.6278
v  -0.6570 0.3500 -0.6278
v  -0.6260 0.3073 0.6233
v  -0.0441 0.3073 0.6233
v  -0.0183 0.3500 0.6233
v  -0.6570 0.3500 0.6233
v  -0.0672 1.3854 -0.6278
v  -0.0672 1.3854 0.6233
v  -0.0382 1.3886 0.6233
v  -0.0382 1.3886 -0.6278
v  -0.0215 1.3716 -0.6278
v  -0.0215 1.3716 0.6233
v  -0.0130 0.3991 -0.6278
v  -0.6553 0.3991 -0.6278
v  -0.1256 1.3186 -0.6278
v  -0.0130 1.3468 -0.6278
v  -0.1256 1.3186 0.6233
v  -0.6553 0.3991 0.6233
v  -0.0130 0.3991 0.6233
v  -0.0130 1.3468 0.6233
v  -0.0972 1.3593 -0.6278
v  -0.0972 1.3593 0.6233
v  -0.1584 0.1098 -0.2667
v  -0.3937 0.1098 -0.2667
v  -0.3573 0.1890 -0.2287
v  -0.2203 0.1890 -0.2287
v  -0.3437 0.2636 -0.2115
v  -0.2326 0.2636 -0.2115
v  -0.3532 0.3276 -0.2115
v  -0.2202 0.3276 -0.2115
v  -0.4359 0.1098 -0.0023
v  -0.3950 0.1890 -0.0023
v  -0.1872 0.3276 -0.0023
v  -0.1996 0.2636 -0.0023
v  -0.3814 0.2636 -0.0023
v  -0.1872 0.1890 -0.0023
v  -0.1210 0.1098 -0.0023
v  -0.3910 0.3276 -0.0023
v  -0.1584 0.1098 0.2622
v  -0.2203 0.1890 0.2242
v  -0.3573 0.1890 0.2242
v  -0.3937 0.1098 0.2622
v  -0.3437 0.2636 0.2070
v  -0.2326 0.2636 0.2070
v  -0.3532 0.3276 0.2070
v  -0.2202 0.3276 0.2070
v  0.0461 0.3500 -0.6278
v  0.6849 0.3500 -0.6278
v  0.6538 0.3073 -0.6278
v  0.0719 0.3073 -0.6278
v  0.6538 0.3073 0.6233
v  0.6849 0.3500 0.6233
v  0.0461 0.3500 0.6233
v  0.0719 0.3073 0.6233
v  0.0950 1.3854 -0.6278
v  0.0660 1.3886 -0.6278
v  0.0660 1.3886 0.6233
v  0.0950 1.3854 0.6233
v  0.0493 1.3716 -0.6278
v  0.0493 1.3716 0.6233
v  0.0409 0.3991 -0.6278
v  0.0409 1.3468 -0.6278
v  0.1534 1.3186 -0.6278
v  0.6832 0.3991 -0.6278
v  0.1534 1.3186 0.6233
v  0.0409 1.3468 0.6233
v  0.0409 0.3991 0.6233
v  0.6832 0.3991 0.6233
v  0.1251 1.3593 -0.6278
v  0.1251 1.3593 0.6233
v  0.1863 0.1098 -0.2667
v  0.2481 0.1890 -0.2287
v  0.3851 0.1890 -0.2287
v  0.4215 0.1098 -0.2667
v  0.3715 0.2636 -0.2115
v  0.2605 0.2636 -0.2115
v  0.3811 0.3276 -0.2115
v  0.2480 0.3276 -0.2115
v  0.4229 0.1890 -0.0023
v  0.4637 0.1098 -0.0023
v  0.2275 0.2636 -0.0023
v  0.2150 0.3276 -0.0023
v  0.4093 0.2636 -0.0023
v  0.1488 0.1098 -0.0023
v  0.2151 0.1890 -0.0023
v  0.4188 0.3276 -0.0023
v  0.1863 0.1098 0.2622
v  0.4215 0.1098 0.2622
v  0.3851 0.1890 0.2242
v  0.2481 0.1890 0.2242
v  0.3715 0.2636 0.2070
v  0.2605 0.2636 0.2070
v  0.3811 0.3276 0.2070
v  0.2480 0.3276 0.2070
v  -0.7349 0.0132 0.7349
v  -0.7349 0.0132 -0.7385
v  0.7631 0.0132 -0.7385
v  0.7631 0.0132 0.7349
v  -0.6814 0.0957 0.6779
v  0.7052 0.0957 0.6779
v  0.7052 0.0957 -0.6815
v  -0.6814 0.0957 -0.6815
v  -0.7878 -0.0022 0.6550
v  -0.7877 -0.0022 0.7826
v  -0.7877 0.1351 0.7826
v  -0.7877 0.1351 0.6550
v  -0.2840 -0.0022 0.7847
v  -0.2840 0.1394 0.7847
v  -0.2840 0.1394 0.6560
v  -0.2840 -0.0022 0.6559
v  -0.2904 -0.0022 0.6501
v  -0.2904 -0.0022 0.7762
v  -0.2904 0.1301 0.7762
v  -0.2904 0.1301 0.6501
v  0.2016 -0.0022 0.7766
v  0.2016 0.1250 0.7766
v  0.2016 0.1250 0.6497
v  0.2016 -0.0022 0.6497
v  0.1971 -0.0022 0.6575
v  0.1971 -0.0022 0.7899
v  0.1971 0.1388 0.7899
v  0.1971 0.1388 0.6575
v  0.6995 -0.0022 0.7800
v  0.6995 0.1249 0.7800
v  0.6995 0.1249 0.6524
v  0.6995 -0.0022 0.6523
v  0.6593 -0.0022 0.7862
v  0.7839 -0.0022 0.7862
v  0.7839 0.1351 0.7862
v  0.6593 0.1351 0.7861
v  0.7824 -0.0022 0.2962
v  0.7824 0.1351 0.2962
v  0.6578 0.1351 0.2962
v  0.6578 -0.0022 0.2962
v  0.6510 -0.0022 0.3005
v  0.7741 -0.0022 0.3005
v  0.7741 0.1301 0.3005
v  0.6510 0.1301 0.3004
v  0.7778 -0.0022 -0.1915
v  0.7778 0.1250 -0.1915
v  0.6540 0.1250 -0.1916
v  0.6539 -0.0022 -0.1915
v  0.6593 -0.0022 -0.1925
v  0.7875 -0.0022 -0.1925
v  0.7875 0.1385 -0.1925
v  0.6593 0.1385 -0.1926
v  0.7839 -0.0022 -0.6830
v  0.7839 0.1249 -0.6830
v  0.6593 0.1249 -0.6830
v  0.6593 -0.0022 -0.6830
v  0.7878 -0.0022 -0.6585
v  0.7877 -0.0022 -0.7861
v  0.7877 0.1351 -0.7861
v  0.7877 0.1351 -0.6585
v  0.2841 -0.0022 -0.7867
v  0.2841 0.1351 -0.7867
v  0.2840 0.1351 -0.6558
v  0.2841 -0.0022 -0.6558
v  0.2890 -0.0022 -0.6603
v  0.2890 -0.0022 -0.7798
v  0.2890 0.1301 -0.7798
v  0.2889 0.1301 -0.6603
v  -0.2030 -0.0022 -0.7884
v  -0.2030 0.1250 -0.7884
v  -0.2030 0.1250 -0.6534
v  -0.2030 -0.0022 -0.6533
v  -0.2006 -0.0022 -0.6558
v  -0.2006 -0.0022 -0.7835
v  -0.2006 0.1351 -0.7835
v  -0.2007 0.1351 -0.6558
v  -0.7031 -0.0022 -0.7861
v  -0.7031 0.1249 -0.7861
v  -0.7031 0.1249 -0.6584
v  -0.7031 -0.0022 -0.6584
v  -0.6549 -0.0022 -0.7899
v  -0.7802 -0.0022 -0.7899
v  -0.7802 0.1351 -0.7899
v  -0.6549 0.1351 -0.7898
v  -0.7816 -0.0022 -0.3001
v  -0.7816 0.1351 -0.3001
v  -0.6549 0.1351 -0.3001
v  -0.6549 -0.0022 -0.3001
v  -0.6499 -0.0022 -0.3111
v  -0.7737 -0.0022 -0.3110
v  -0.7737 0.1219 -0.3110
v  -0.6499 0.1219 -0.3110
v  -0.7741 -0.0022 0.1779
v  -0.7741 0.1334 0.1779
v  -0.6495 0.1334 0.1779
v  -0.6495 -0.0022 0.1779
v  -0.6585 -0.0022 0.1779
v  -0.7838 -0.0022 0.1779
v  -0.7838 0.1237 0.1779
v  -0.6585 0.1237 0.1779
v  -0.7802 -0.0022 0.6693
v  -0.7802 0.1249 0.6693
v  -0.6549 0.1249 0.6693
v  -0.6549 -0.0022 0.6693
# 200 vertices

vn 0.0000 0.0000 -1.0000
vn 0.0000 -0.0000 -1.0000
vn -0.0000 0.0000 1.0000
vn 0.0000 0.0000 1.0000
vn 0.0000 -1.0000 0.0000
vn -0.9562 -0.2927 0.0000
vn -0.8087 -0.5882 0.0000
vn -0.4009 0.9161 -0.0000
vn 0.3358 0.9419 -0.0000
vn 0.8515 0.5244 -0.0000
vn -0.0000 -0.0000 1.0000
vn -0.8446 0.5354 -0.0000
vn -0.9614 0.2752 -0.0000
vn 0.9477 -0.3191 0.0000
vn 0.9986 -0.0534 0.0000
vn 0.9866 0.1633 -0.0000
vn -0.0000 0.0000 -1.0000
vn 0.8563 -0.5164 0.0000
vn -0.7442 0.6680 -0.0000
vn 0.0000 0.4320 -0.9019
vn 0.0000 0.3482 -0.9374
vn -0.0000 0.3529 -0.9357
vn -0.0000 0.1143 -0.9935
vn -0.0000 0.1123 -0.9937
vn -0.0000 -0.0000 -1.0000
vn -0.9199 0.3623 -0.1503
vn -0.8728 0.4677 -0.1392
vn -0.8871 0.4616 -0.0000
vn -0.9437 0.3308 -0.0000
vn 0.9876 0.0172 -0.1558
vn 0.9700 -0.1888 -0.1531
vn 0.9816 -0.1911 0.0000
vn 0.9999 -0.0104 0.0000
vn -0.9842 0.0423 -0.1718
vn -0.9999 0.0163 0.0000
vn 0.7590 0.6417 -0.1097
vn 0.8761 0.4637 -0.1316
vn 0.9040 0.4276 -0.0000
vn 0.7673 0.6413 -0.0000
vn -0.9737 -0.1451 -0.1756
vn -0.9891 -0.1474 0.0000
vn 0.0000 0.4320 0.9019
vn -0.0000 0.3529 0.9357
vn 0.0000 0.3482 0.9374
vn -0.0000 0.1143 0.9935
vn -0.0000 0.1123 0.9937
vn -0.9199 0.3623 0.1503
vn -0.8728 0.4677 0.1392
vn 0.9876 0.0172 0.1558
vn 0.9700 -0.1888 0.1531
vn -0.9842 0.0423 0.1718
vn 0.7590 0.6417 0.1097
vn 0.8761 0.4637 0.1316
vn -0.9737 -0.1451 0.1756
vn -0.0000 -1.0000 0.0000
vn 0.9562 -0.2927 0.0000
vn 0.8087 -0.5882 0.0000
vn 0.4009 0.9161 -0.0000
vn -0.3358 0.9419 -0.0000
vn -0.8515 0.5244 -0.0000
vn 0.0000 -0.0000 1.0000
vn 0.9614 0.2752 -0.0000
vn 0.8446 0.5354 -0.0000
vn -0.9477 -0.3191 0.0000
vn -0.9986 -0.0534 0.0000
vn -0.9866 0.1633 -0.0000
vn -0.8563 -0.5164 0.0000
vn 0.7442 0.6680 -0.0000
vn 0.0000 0.3529 -0.9357
vn 0.0000 0.1143 -0.9935
vn 0.0000 0.1123 -0.9937
vn 0.9199 0.3623 -0.1503
vn 0.9437 0.3308 -0.0000
vn 0.8871 0.4616 -0.0000
vn 0.8728 0.4677 -0.1392
vn -0.9876 0.0172 -0.1558
vn -0.9999 -0.0104 0.0000
vn -0.9816 -0.1911 0.0000
vn -0.9700 -0.1888 -0.1531
vn 0.9842 0.0423 -0.1718
vn 0.9999 0.0163 0.0000
vn -0.7590 0.6417 -0.1097
vn -0.7673 0.6413 -0.0000
vn -0.9040 0.4276 -0.0000
vn -0.8761 0.4637 -0.1316
vn 0.9737 -0.1451 -0.1756
vn 0.9891 -0.1474 0.0000
vn 0.0000 0.3529 0.9357
vn 0.0000 0.1143 0.9935
vn 0.0000 0.1123 0.9937
vn 0.9199 0.3623 0.1503
vn 0.8728 0.4677 0.1392
vn -0.9876 0.0172 0.1558
vn -0.9700 -0.1888 0.1531
vn 0.9842 0.0423 0.1718
vn -0.7590 0.6417 0.1097
vn -0.8761 0.4637 0.1316
vn 0.9737 -0.1451 0.1756
vn -0.0000 1.0000 -0.0000
vn 0.0000 1.0000 -0.0000
vn -1.0000 0.0002 0.0000
vn -0.0042 0.0000 1.0000
vn -0.0086 1.0000 -0.0000
vn 0.0020 0.0001 -1.0000
vn 0.0000 -1.0000 -0.0000
vn 1.0000 -0.0001 0.0000
vn -0.0009 0.0000 1.0000
vn 0.0102 0.9999 0.0000
vn -0.0007 0.0002 -1.0000
vn 0.0196 0.0000 0.9998
vn 0.0278 0.9996 0.0000
vn -0.0102 0.0002 -0.9999
vn -0.0000 -1.0000 -0.0000
vn 0.0000 0.0002 1.0000
vn 1.0000 -0.0000 -0.0031
vn 1.0000 0.0000 -0.0031
vn 0.0000 1.0000 0.0000
vn -1.0000 0.0002 0.0031
vn 0.0000 -0.0001 -1.0000
vn 1.0000 0.0000 0.0077
vn 0.0000 0.9999 -0.0102
vn -1.0000 0.0002 -0.0060
vn 1.0000 -0.0000 -0.0073
vn 1.0000 0.0000 -0.0073
vn 0.0000 0.9996 -0.0277
vn -1.0000 0.0002 -0.0000
vn 1.0000 0.0002 -0.0000
vn 0.0012 0.0000 -1.0000
vn 0.0054 0.0002 1.0000
vn -1.0000 -0.0001 -0.0000
vn 0.0176 0.0000 -0.9998
vn -0.0102 0.9999 -0.0000
vn 0.0141 0.0002 0.9999
vn 0.0052 0.0000 -1.0000
vn -0.0203 0.9998 -0.0000
vn -0.0052 0.0002 1.0000
vn -0.0000 0.0002 -1.0000
vn -1.0000 -0.0000 -0.0029
vn -1.0000 0.0000 -0.0029
vn 1.0000 0.0002 0.0000
vn -0.0000 -0.0001 1.0000
vn -1.0000 -0.0000 -0.0009
vn -1.0000 0.0000 -0.0009
vn 0.0000 0.9997 -0.0237
vn 1.0000 0.0002 -0.0008
vn -1.0000 -0.0000 0.0073
vn -1.0000 0.0000 0.0073
vn -0.0000 1.0000 -0.0024
vn 1.0000 0.0002 -0.0074
vn -0.0001 -0.0001 1.0000
# 150 vertex normals

vt 0.5375 0.6266 0.0000
vt 0.5359 0.6095 0.0000
vt 0.3428 0.4989 0.0000
vt 0.3256 0.5052 0.0000
vt 0.3177 0.4006 0.0000
vt 0.0143 0.4006 0.0000
vt 0.0143 0.4845 0.0000
vt 0.3177 0.4845 0.0000
vt 0.3177 0.5007 0.0000
vt 0.0143 0.5007 0.0000
vt 0.3177 0.9610 0.0000
vt 0.0143 0.9610 0.0000
vt 0.0143 0.9735 0.0000
vt 0.3177 0.9735 0.0000
vt 0.3177 0.9808 0.0000
vt 0.0143 0.9808 0.0000
vt 0.5308 0.6423 0.0000
vt 0.3177 0.5202 0.0000
vt 0.3177 0.9307 0.0000
vt 0.3486 0.9605 0.0000
vt 0.3177 0.5203 0.0000
vt 0.0143 0.5203 0.0000
vt 0.0143 0.9307 0.0000
vt 0.9822 0.5730 0.0000
vt 0.9822 0.5913 0.0000
vt 0.6788 0.5913 0.0000
vt 0.6788 0.5730 0.0000
vt 0.9822 0.9850 0.0000
vt 0.6788 0.9850 0.0000
vt 0.3193 0.9491 0.0000
vt 0.3415 0.9671 0.0000
vt 0.9822 0.5580 0.0000
vt 0.6788 0.5580 0.0000
vt 0.3177 0.9915 0.0000
vt 0.0143 0.9915 0.0000
vt 0.3242 0.9631 0.0000
vt 0.3330 0.9695 0.0000
vt 0.3177 0.9482 0.0000
vt 0.0143 0.9482 0.0000
vt 0.5627 0.8829 0.0000
vt 0.5016 0.8829 0.0000
vt 0.5109 0.9107 0.0000
vt 0.5494 0.9107 0.0000
vt 0.5139 0.9368 0.0000
vt 0.5439 0.9368 0.0000
vt 0.5117 0.9601 0.0000
vt 0.5440 0.9601 0.0000
vt 0.4431 0.9138 0.0000
vt 0.4538 0.9324 0.0000
vt 0.5956 0.9601 0.0000
vt 0.5960 0.9516 0.0000
vt 0.4577 0.9467 0.0000
vt 0.6028 0.9405 0.0000
vt 0.6161 0.9303 0.0000
vt 0.4576 0.9601 0.0000
vt 0.5442 0.9601 0.0000
vt 0.3618 0.3601 0.0000
vt 0.0169 0.3601 0.0000
vt 0.0169 0.0152 0.0000
vt 0.3618 0.0152 0.0000
vt 0.5201 0.1084 0.0000
vt 0.9476 0.1084 0.0000
vt 0.9476 0.5359 0.0000
vt 0.5201 0.5359 0.0000
vt 0.4955 0.0494 0.0000
vt 0.4955 0.0901 0.0000
vt 0.5375 0.0901 0.0000
vt 0.5375 0.0494 0.0000
vt 0.9462 0.0067 0.0000
vt 0.7942 0.0067 0.0000
vt 0.7942 0.0493 0.0000
vt 0.9462 0.0493 0.0000
vt 0.6896 0.0901 0.0000
vt 0.6896 0.0494 0.0000
vt 0.9462 0.0901 0.0000
vt 0.7942 0.0901 0.0000
vt 0.7942 0.1075 0.0000
vt 0.9462 0.1075 0.0000
vt 0.7315 0.0901 0.0000
vt 0.7315 0.0494 0.0000
vt 0.7315 0.0493 0.0000
vt 0.6896 0.0493 0.0000
vt 0.6896 0.0067 0.0000
vt 0.5375 0.0067 0.0000
vt 0.5375 0.0493 0.0000
vt 0.5375 0.1075 0.0000
vt 0.6896 0.1075 0.0000
vt 0.4955 0.0493 0.0000
vt 0.9882 0.0901 0.0000
vt 0.9882 0.0493 0.0000
vt 0.7522 0.0493 0.0000
vt 0.7522 0.0901 0.0000
# 92 texture coords

g mould_green
usemtl mould_green
s 1
f 1/1/1 2/2/2 3/3/2 4/4/1 
f 5/3/3 6/2/3 7/1/3 8/4/4 
s 2
f 2/5/5 6/6/5 5/7/5 3/8/5 
s 4
f 4/9/6 3/8/7 5/7/7 8/10/6 
f 9/11/8 10/12/8 11/13/9 12/14/9 
f 13/15/10 12/14/9 11/13/9 14/16/10 
s 1
f 15/17/1 16/18/1 17/19/2 18/20/2 
f 19/19/11 20/18/4 21/17/3 22/20/11 
s 4
f 17/19/12 16/21/13 20/22/13 19/23/12 
f 1/24/14 15/25/15 21/26/15 7/27/14 
f 15/25/15 18/28/16 22/29/16 21/26/15 
s 1
f 18/20/2 17/19/2 23/30/17 13/31/17 
f 24/30/11 19/19/11 22/20/11 14/31/4 
f 15/17/1 1/1/1 4/4/1 16/18/1 
f 20/18/4 8/4/4 7/1/3 21/17/3 
s 4
f 16/21/13 4/9/6 8/10/6 20/22/13 
f 2/32/18 1/24/14 7/27/14 6/33/18 
f 18/34/16 13/15/10 14/16/10 22/35/16 
s 1
f 13/31/17 23/30/17 9/36/17 12/37/17 
f 10/36/4 24/30/11 14/31/4 11/37/4 
s 4
f 9/11/8 23/38/19 24/39/19 10/12/8 
f 25/40/20 26/41/20 27/42/21 28/43/22 
f 29/44/23 30/45/24 28/43/22 27/42/21 
f 31/46/25 32/47/1 30/45/24 29/44/23 
s 16
f 27/42/26 26/41/27 33/48/28 34/49/29 
s 64
f 30/45/30 32/47/31 35/50/32 36/51/33 
s 16
f 29/44/34 27/42/26 34/49/29 37/52/35 
s 64
f 25/40/36 28/43/37 38/53/38 39/54/39 
f 28/43/37 30/45/30 36/51/33 38/53/38 
s 16
f 31/46/40 29/44/34 37/52/35 40/55/41 
s 4
f 41/41/42 42/42/43 43/43/44 44/40/42 
f 45/45/45 43/43/44 42/42/43 46/44/46 
f 47/56/11 45/45/45 46/44/46 48/46/4 
s 16
f 43/43/47 34/53/29 33/54/28 44/40/48 
s 64
f 46/44/49 36/52/33 35/55/32 48/46/50 
s 16
f 45/45/51 37/51/35 34/53/29 43/43/47 
s 64
f 41/41/52 39/48/39 38/49/38 42/42/53 
f 42/42/53 38/49/38 36/52/33 46/44/49 
s 16
f 47/56/54 40/50/41 37/51/35 45/45/51 
s 1
f 49/1/1 50/4/17 51/3/25 52/2/2 
f 53/3/4 54/4/4 55/1/4 56/2/4 
s 2
f 52/5/55 51/8/5 53/7/55 56/6/55 
s 4
f 50/9/56 54/10/56 53/7/57 51/8/57 
f 57/11/58 58/14/59 59/13/59 60/12/58 
f 61/15/60 62/16/60 59/13/59 58/14/59 
s 1
f 63/17/17 64/20/25 65/19/25 66/18/1 
f 67/19/61 68/20/61 69/17/4 70/18/4 
s 4
f 70/22/62 66/21/62 65/19/63 67/23/63 
f 49/24/64 55/27/64 69/26/65 63/25/65 
f 63/25/65 69/26/65 68/29/66 64/28/66 
s 1
f 64/20/25 61/31/1 71/30/1 65/19/25 
f 72/30/61 62/31/4 68/20/61 67/19/61 
f 63/17/17 66/18/1 50/4/17 49/1/1 
f 70/18/4 69/17/4 55/1/4 54/4/4 
s 4
f 66/21/62 70/22/62 54/10/56 50/9/56 
f 52/32/67 56/33/67 55/27/64 49/24/64 
f 64/34/66 68/35/66 62/16/60 61/15/60 
s 1
f 61/31/1 58/37/1 57/36/1 71/30/1 
f 60/36/4 59/37/4 62/31/4 72/30/61 
s 4
f 57/11/58 60/12/58 72/39/68 71/38/68 
f 73/40/20 74/43/69 75/42/21 76/41/20 
f 77/44/70 75/42/21 74/43/69 78/45/71 
f 79/46/2 77/44/70 78/45/71 80/47/17 
s 16
f 75/42/72 81/49/73 82/48/74 76/41/75 
s 64
f 78/45/76 83/51/77 84/50/78 80/47/79 
s 16
f 77/44/80 85/52/81 81/49/73 75/42/72 
s 64
f 73/40/82 86/54/83 87/53/84 74/43/85 
f 74/43/85 87/53/84 83/51/77 78/45/76 
s 16
f 79/46/86 88/55/87 85/52/81 77/44/80 
s 4
f 89/41/42 90/40/42 91/43/44 92/42/88 
f 93/45/89 94/44/90 92/42/88 91/43/44 
f 95/56/61 96/46/3 94/44/90 93/45/89 
s 16
f 91/43/91 90/40/92 82/54/74 81/53/73 
s 64
f 94/44/93 96/46/94 84/55/78 83/52/77 
s 16
f 93/45/95 91/43/91 81/53/73 85/51/81 
s 64
f 89/41/96 92/42/97 87/49/84 86/48/83 
f 92/42/97 94/44/93 83/52/77 87/49/84 
s 16
f 95/56/98 93/45/95 85/51/81 88/50/87 
s 2
f 97/57/5 98/58/5 99/59/5 100/60/5 
s 4
f 101/61/99 102/62/99 103/63/99 104/64/100 
f 23/38/19 17/19/12 19/23/12 24/39/19 
f 67/23/63 65/19/63 71/38/68 72/39/68 
s off
f 105/65/101 106/66/101 107/67/101 108/68/101 
s 64
f 106/69/102 109/70/102 110/71/102 107/72/102 
s off
f 107/67/103 110/73/103 111/74/103 108/68/103 
f 108/75/104 111/76/104 112/77/104 105/78/104 
f 105/77/105 112/78/105 109/75/105 106/76/105 
f 111/74/106 110/73/106 109/79/106 112/80/106 
f 113/79/101 114/81/101 115/82/101 116/73/101 
s 64
f 114/83/107 117/84/107 118/85/107 115/82/107 
s off
f 115/82/108 118/85/108 119/67/108 116/73/108 
f 116/73/109 119/67/109 120/86/109 113/87/109 
f 113/86/105 120/87/105 117/73/105 114/67/105 
f 119/67/106 118/85/106 117/88/106 120/66/106 
f 121/89/101 122/90/101 123/72/101 124/75/101 
s 64
f 122/69/110 125/70/110 126/71/110 123/72/110 
s off
f 123/72/111 126/71/111 127/76/111 124/75/111 
f 124/75/112 127/76/112 128/77/112 121/78/112 
f 121/77/113 128/78/113 125/75/113 122/76/113 
f 127/76/106 126/71/106 125/91/106 128/92/106 
f 129/65/114 130/66/114 131/67/114 132/68/114 
s 64
f 130/83/115 133/84/115 134/68/115 131/74/116 
s off
f 131/67/117 134/73/117 135/74/117 132/68/117 
f 132/73/118 135/67/118 136/86/118 129/87/118 
f 129/86/113 136/87/113 133/73/113 130/67/113 
f 135/74/119 134/73/119 133/79/119 136/80/119 
f 137/79/114 138/81/114 139/82/114 140/73/114 
s 64
f 138/83/120 141/84/120 142/85/120 139/82/120 
s off
f 139/82/121 142/85/121 143/67/121 140/73/121 
f 140/73/122 143/67/122 144/86/122 137/87/122 
f 137/86/55 144/87/55 141/73/55 138/67/55 
f 143/67/119 142/85/119 141/88/119 144/66/119 
f 145/89/114 146/90/114 147/72/114 148/75/114 
s 64
f 146/69/123 149/70/124 150/71/123 147/72/123 
s off
f 147/72/125 150/71/125 151/76/125 148/75/125 
f 148/75/126 151/76/126 152/77/126 145/78/126 
f 145/77/55 152/78/55 149/75/55 146/76/55 
f 151/76/119 150/71/119 149/91/119 152/92/119 
f 153/65/127 154/66/127 155/67/127 156/68/127 
s 64
f 154/69/128 157/70/128 158/71/128 155/72/128 
s off
f 155/67/100 158/73/100 159/74/100 156/68/100 
f 156/75/129 159/76/129 160/77/129 153/78/129 
f 153/77/55 160/78/55 157/75/55 154/76/55 
f 159/74/130 158/73/130 157/79/130 160/80/130 
f 161/79/127 162/81/127 163/82/127 164/73/127 
s 64
f 162/83/131 165/84/131 166/85/131 163/82/131 
s off
f 163/82/132 166/85/132 167/67/132 164/73/132 
f 164/73/133 167/67/133 168/86/133 161/87/133 
f 161/86/55 168/87/55 165/73/55 162/67/55 
f 167/67/130 166/85/130 165/88/130 168/66/130 
f 169/89/127 170/90/127 171/72/127 172/75/127 
s 64
f 170/69/134 173/70/134 174/71/134 171/72/134 
s off
f 171/72/135 174/71/135 175/76/135 172/75/135 
f 172/75/136 175/76/136 176/77/136 169/78/136 
f 169/77/5 176/78/5 173/75/5 170/76/5 
f 175/76/130 174/71/130 173/91/130 176/92/130 
f 177/65/137 178/66/137 179/67/137 180/68/137 
s 64
f 178/69/138 181/70/138 182/71/138 179/72/139 
s off
f 179/67/99 182/73/99 183/74/99 180/68/99 
f 180/75/140 183/76/140 184/77/140 177/78/140 
f 177/77/5 184/78/5 181/75/5 178/76/5 
f 183/74/141 182/73/141 181/79/141 184/80/141 
f 185/79/137 186/81/137 187/82/137 188/73/137 
s 64
f 186/83/142 189/84/143 190/85/142 187/82/142 
s off
f 187/82/144 190/85/144 191/67/144 188/73/144 
f 188/73/145 191/67/145 192/86/145 185/87/145 
f 185/86/5 192/87/5 189/73/5 186/67/5 
f 191/67/141 190/85/141 189/88/141 192/66/141 
f 193/89/137 194/90/137 195/72/137 196/75/137 
s 64
f 194/69/146 197/70/147 198/71/146 195/72/146 
s off
f 195/72/148 198/71/148 199/76/148 196/75/148 
f 196/75/149 199/76/149 200/77/149 193/78/149 
f 193/77/5 200/78/5 197/75/5 194/76/5 
f 199/76/150 198/71/150 197/91/150 200/92/150 
# 154 polygons

